<?xml version="1.0" encoding="UTF-8"?>
<svg xmlns="http://www.w3.org/2000/svg" version="1.1" viewBox="0 0 4500 5400">
  <!-- Generator: Adobe Illustrator 29.7.1, SVG Export Plug-In . SVG Version: 2.1.1 Build 8)  -->
  <defs>
    <style>
      .st0 {
        fill: #fff;
      }

      .st1 {
        fill: #1f1e1e;
      }

      .st2 {
        fill: #f47721;
      }

      .st3 {
        fill: #f58020;
      }

      .st4 {
        display: none;
      }

      .st5 {
        fill: #272727;
      }

      .st6 {
        fill: none;
        stroke: #272627;
        stroke-linecap: round;
        stroke-linejoin: round;
        stroke-width: 18.46px;
      }
    </style>
  </defs>
  <g id="Layer_1">
    <g id="Generative_Object">
      <g>
        <path class="st1" d="M3251.78,1141.66c5.36,12.46,26.53,3.23,36.18,6.03,3.88,1.12,14.6,4.63,18.09,6.03,47.14,18.95,114.44,84.97,132.67,132.67,1.97,5.15,3.87,16.49,6.03,24.12,2.69,9.51,5.28,37.52,6.03,48.24,1.06,13.85-.65,28.3,0,42.21,16.73,798.37-25.09,1601.18-6.03,2400.11,0,0,0,0,0,0-10.53.58-4.27,12.23-6.03,18.09-13.13,43.73-90.9,116.15-132.67,132.67-3.96,1.57-16.89,4.05-24.12,6.03-9.82,2.68-30.79-6.35-36.18,6.03-579.7-35.76-1218.03,47.71-1791.04,0-7.5-12.93-31.05-2.82-42.21-6.03-4.24-1.22-13.79-4.4-18.09-6.03-53.96-20.44-103-71.22-126.64-123.62,0,0,0,0,0,0,48.88-7.4,95.8,2.31,144.72-9.04,0,0,0,0,0,0,10.29-1.26,15.32-3.78,24.12-6.03,47.18-12.04,77.99-44.24,90.46-90.46,2.25-8.33,4.73-10.97,6.03-24.12,0,0,0,0,0-.01,6.68-27.48,7.27-26.49,0-54.27-2.25-8.6-2.32-9.59-6.03-18.08,0,0,0,0,0-.01-13.17-51.44-43.9-84.58-96.49-96.48-55.6-12.58-112.7-3.21-168.85-6.03,0,0,0,0,0,0l3.02-138.69s0,0,0,0c52.02-.98,102.14,4.07,153.77-6.03,64.37-12.59,88.38-37.89,108.55-96.49,3.75-10.86,4.11-12.94,6.03-24.12,3.26-23.8,3.08-24.55,0-48.24-1.8-10.98-2.5-13.66-6.03-24.12-19.16-56.4-40.5-83.69-102.52-96.49-53.32-11-106.03-4.38-159.8-6.03,0,0,0,0,0,0l-3.02-138.69s0,0,0,0c54.7-1.63,108.49,4.94,162.82-6.03,62.26-12.58,82.92-38.79,102.52-96.49,3.53-10.46,4.23-13.13,6.03-24.12,3.08-23.69,3.25-24.45,0-48.24-1.92-11.26-2.12-13.08-6.03-24.12-18.65-53.28-34.25-72.87-90.46-90.46-10.31-3.39-12.98-4.34-24.12-6.03-55.02-9.8-105.61,2.2-156.79-15.08,0,0,0,0,0,0v-168.85s0,0,0,0c51.19-17.36,101.75-5.16,156.79-15.08,11.71-1.72,13.3-2.29,24.12-6.03,54.51-17.34,72.03-38.04,90.46-90.46,3.91-11.04,4.11-12.86,6.03-24.12,3.24-23.91,4.97-23.46,0-48.24,0,0,0,0,0,0-1.21-12.82-2.67-18.01-6.03-30.15-12.46-44.98-37.44-66.75-78.4-84.43-8.44-3.64-10.09-3.73-18.09-6.03-12.95-3.87-16.88-4.47-30.15-6.03-24.46-3.79-130.15-2.1-135.68-6.03-7.97-5.65-.25-110.9-3.02-129.65,54.88-7.35,107.91,2.23,162.82-9.05,10.32-2.12,12.07-3.91,18.09-6.03,52.16-18.39,67.47-41.13,84.43-90.46,3.76-10.88,4.09-12.97,6.03-24.12,3.21-23.78,3.21-24.46,0-48.24-1.94-11.15-2.27-13.25-6.03-24.12-17.26-50.21-31.3-71.98-84.43-90.46-5.81-2.02-7.63-3.94-18.09-6.03-54.98-11.01-107.89-1.88-162.82-9.05,0,0,0,0,0,0,3.78-18.98-5.05-119.47,0-126.63,1.76-2.49,50.08-7.27,60.3-9.05,36.49-1.87,65.44,1.62,102.52-6.03,61.43-12.68,83.9-40.15,102.52-96.49,3.72-10.82,4.18-12.75,6.03-24.12,2.68-22.94,4.9-16.72,0-42.21,0,0,0,0,0,0-1.09-12.89-2.74-18.06-6.03-30.15-13.82-50.76-41.98-75.07-90.46-90.46-10.82-3.74-12.41-4.32-24.12-6.03-48.95-8.8-95.52-6-144.73-6.03,0,0,0,0,0,0v-6.02s0,0,0,0c32.76-40.45,76.19-96.37,126.64-114.58,3.44-1.24,16.78-5.71,18.09-6.03,10.09-2.45,30.74,6.2,36.18-6.03,580.62,38.79,1230.38-51.73,1803.1,0Z"/>
        <g>
          <path class="st0" d="M2467.83,1841.19c14.63,1.36,33.33,3.96,48.24,6.03,8.29,1.15,20.94,4.33,30.15,6.03,9.08,1.67,21.23,3.93,30.15,6.03,1.53.36,11.37,4.2,18.09,6.03,7.55,1.9,17,3.93,24.12,6.03,5.09,1.5,12.58,4.19,18.09,6.03,5.72,1.91,12.69,4.04,18.09,6.03.63.23,5.5,3.41,12.06,6.03,180.13,76.6,334.28,229.54,410.07,410.07,1.73,4.13,3.32,10.96,6.03,18.09,2.03,5.35,4,12.22,6.03,18.09,2.35,6.81,3.57,15.9,6.03,24.12,1.84,7.23,5.82,17.16,6.03,18.09,2.05,9.25,4.33,20.92,6.03,30.15,1.69,9.2,4.89,21.9,6.03,30.15,2.32,16.87,4.45,37.37,6.03,54.27,2.06,36.57,2.23,84.11,0,120.61-1.43,14.55-3.76,33.67-6.03,48.24-1.35,8.64-4.2,20.94-6.03,30.15-1.86,9.34-3.81,21.3-6.03,30.15-.57,2.29-4.17,11.6-6.03,18.09-1.94,7.58-3.9,17.13-6.03,24.12-1.6,5.26-4.15,12.61-6.03,18.09-67.3,186.47-237.45,361.36-422.13,434.19-5.38,2.12-11.85,3.72-18.09,6.03-5.41,2-12.36,4.11-18.09,6.03-5.56,1.87-12.88,4.46-18.09,6.03-7.13,2.14-16.43,4.04-24.12,6.03-7.28,1.89-17.17,4.53-24.12,6.03-7.81,1.68-20.13,5.34-24.12,6.03-12.76,2.22-29.41,4.47-42.21,6.03-21.9,2.23-51,5.42-72.37,6.03-17.87.56-36.41.53-54.27,0-21.32-.56-50.46-3.85-72.37-6.03-12.92-1.54-29.15-3.93-42.21-6.03-8.68-1.39-21.07-4.13-30.15-6.03-6.79-1.42-16.92-4.18-24.12-6.03-2.62-.67-11.7-4.16-18.09-6.03-5.07-1.48-12.52-4.2-18.09-6.03-5.71-1.88-12.49-4.05-18.09-6.03-10.26-3.52-28.47-8.89-36.18-12.06-166.05-70.92-328.15-231.06-398.01-398.01-1.66-3.98-3.04-10.39-6.03-18.09-2.04-5.25-3.97-12.19-6.03-18.09-1.93-5.51-4.3-12.62-6.03-18.09-1.8-5.67-4.88-13.95-6.03-18.09-1.98-7.1-4.4-17-6.03-24.12s-5.26-19.85-6.03-24.12c-1.97-10.97-4.63-25.53-6.03-36.18-2.25-17.68-5.28-43.06-6.03-60.3-1.55-27.87-1.55-62.59,0-90.46.75-17.25,3.78-42.63,6.03-60.3,1.39-10.56,4.02-25.37,6.03-36.18.86-4.61,4.31-16.82,6.03-24.12,1.71-7.24,4.02-17.03,6.03-24.12,1.3-4.58,4.24-12.57,6.03-18.09s4.07-12.65,6.03-18.09c2.17-6.03,3.96-12.9,6.03-18.09,73.85-185.37,233.37-339.74,416.1-416.1,6.81-2.68,11.43-5.8,12.06-6.03,5.5-2,12.31-4.09,18.09-6.03,5.57-1.87,12.84-4.44,18.09-6.03,7.12-2.15,16.4-4.01,24.12-6.03,7.26-1.86,17.16-5.83,18.09-6.03,8.9-1.9,21.65-4.7,30.15-6.03,9.6-1.5,25.13-5.46,30.15-6.03,15.08-1.72,33.98-4.99,48.24-6.03,44.49-3.24,105.84-2.4,150.76,0Z"/>
          <g>
            <path class="st3" d="M2455.77,1925.61c14.69,1.52,33.62,3.72,48.24,6.03,8.74,1.38,20.86,4.19,30.15,6.03,6.74,1.33,16.53,4.29,24.12,6.03,7.21,1.65,16.85,4.06,24.12,6.03,3.24.88,11.97,4.16,18.09,6.03,5.41,1.65,12.28,4.14,18.09,6.03.64.21,3.91,3.08,12.06,6.03,0,0,0,0,0,0,158.33,69.15,294.54,194.49,361.83,355.8,1.96,4.7,3.64,11.68,6.03,18.09,3.01,8.56,5.82,11.42,6.03,12.06,2.21,6.9,3.92,16.33,6.03,24.12,1.91,6.82,5.4,15.61,6.03,18.09,2.26,8.88,4.09,20.68,6.03,30.15,1.79,8.72,4.92,22.14,6.03,30.15,2.47,17.85,4.94,42.53,6.03,60.3.79,21.76.76,44.57,0,66.33-1.07,17.62-3.47,42.7-6.03,60.3-1.24,8.51-4.32,20.77-6.03,30.15-1.65,9.02-3.93,21.29-6.03,30.15-1.76,7.42-4.04,16.69-6.03,24.12-.85,3.17-4.1,11.49-6.03,18.09-1.48,5.06-4.2,12.54-6.03,18.09-.21.64-3.11,4.11-6.03,12.06,0,0,0,0,0,0-69.47,156.16-184.96,274.7-337.7,349.76-2.59,1.27-9.05,1.99-18.09,6.03-7.7,2.85-11.43,5.81-12.06,6.03-5.45,1.93-12.63,4.3-18.09,6.03-5.65,1.8-13.94,4.87-18.09,6.03-6.62,1.85-16.21,5.57-18.09,6.03-7.36,1.79-17.44,4.69-24.12,6.03-9.37,1.88-21.23,4.56-30.15,6.03-11.22,1.85-25.51,4.68-36.18,6.03-51.54,3.73-129.34,3.67-180.91,0-10.77-1.38-24.84-4.2-36.18-6.03-3.36-.54-15.95-4.4-24.12-6.03-6.67-1.33-16.76-4.25-24.12-6.03s-16.99-3.98-24.12-6.03c-4.98-1.43-12.5-4.22-18.09-6.03-.64-.21-3.55-3.03-12.06-6.03-8.23-3.37-14.81-4.55-18.09-6.03-155.7-70.21-277.6-188.8-349.76-343.73,0,0,0,0,0,0-2.73-7.07-5.8-11.43-6.03-12.06-1.97-5.41-4.18-12.46-6.03-18.09s-4.58-13.08-6.03-18.09c-1.84-6.36-5.46-15.83-6.03-18.09-1.83-7.32-4.62-17.31-6.03-24.12-1.91-9.21-4.57-21.32-6.03-30.15-1.85-11.2-4.7-25.54-6.03-36.18-3.55-47.63-3.56-121.23,0-168.85,1.4-10.65,4.05-25.23,6.03-36.18.8-4.44,4.31-16.16,6.03-24.12,1.52-7.01,4.15-16.75,6.03-24.12.64-2.5,4.18-11.81,6.03-18.09,1.49-5.07,4.19-12.62,6.03-18.09,1.92-5.7,4.04-12.79,6.03-18.09,1.58-4.21,8.28-15.16,12.06-24.12,0,0,0,0,0,0,71.44-141.26,191.28-261.3,337.7-325.64,3.49-1.53,10.16-2.87,18.09-6.03,7.48-2.82,11.42-5.81,12.06-6.03,5.46-1.92,12.66-4.32,18.09-6.03,7-2.21,16.29-3.91,24.12-6.03,6.64-1.79,17.16-5.82,18.09-6.03,8.79-1.96,21.59-4.64,30.15-6.03,9.52-1.54,24.84-5.4,30.15-6.03,13.05-1.56,30.31-5.15,42.21-6.03,37.99-2.8,88.13-1.71,126.64,0Z"/>
            <path class="st0" d="M2244.7,2178.89c150.26,118.4,394.46,194.68,539.72,307.55,16.83,13.08,42.62,37.96,45.23,60.3.63,5.41.71,12.72,0,18.09-2.02,15.28-26.49,43.82-39.2,54.27,0,0,0,0,0,0l-563.84,313.58s0,0,0,0c-7.77-.81-16.59,1.26-24.12,0-23.77-3.97-46.83-36.26-60.3-54.27,0,0,0,0,0,0v-651.28s0,0,0,0c1.91-7.93,35.77-46.24,42.21-48.24,13.68-4.25,43.89,3.04,60.3,0Z"/>
          </g>
        </g>
      </g>
      <g>
        <path class="st3" d="M1382.35,1346.69c6.74,1.5,28.78,5.35,30.15,6.03,9.8,4.88,45.8,43.87,48.24,54.27,1.3,5.55,1.3,30.63,0,36.18-2.44,10.37-44.1,57.54-54.27,60.3-11.93,3.24-235.32,3.24-247.25,0-6.01-1.63-46.38-42.03-48.24-48.24-1.31-4.37-1.31-49.91,0-54.27,8.56-28.58,57.79-50.22,84.43-54.27,35.76-5.45,149.31-4.15,186.94,0Z"/>
        <path class="st3" d="M1400.44,1786.91c19.15,4.57,57.37,46.99,60.3,66.33.94,6.21.94,17.92,0,24.12-2.94,19.34-41.15,61.77-60.3,66.33-13.31,3.17-229.59,3.22-241.22,0-3.29-.91-46.51-42.48-48.24-48.24-1.37-4.56-1.35-49.33,0-54.27,4-14.62,46.11-51.07,60.3-54.27,15.34-3.47,214.49-3.5,229.16,0Z"/>
        <path class="st3" d="M1406.47,2227.13c10.14,2.53,51.65,44.09,54.27,54.27,1.38,5.35,1.35,36.67,0,42.21-4.91,20.22-46.16,56.02-66.33,60.3-18.6,3.95-204.56,3.95-223.13,0-12.24-2.61-56.96-37.43-60.3-48.24-1.31-4.23-1.31-56.02,0-60.3,2.32-7.57,45.03-46.04,54.27-48.24,13.78-3.28,228.09-3.28,241.22,0Z"/>
        <path class="st3" d="M1388.38,2715.6c23.07,4.45,66.87,36.89,72.37,60.3,1.4,5.95,1.26,29.79,0,36.18-2.86,14.56-37.68,56.28-54.27,60.3-13.18,3.2-235.32,3.24-247.25,0-6.01-1.63-46.38-42.03-48.24-48.24-1.31-4.37-1.31-49.91,0-54.27,7.36-24.59,54.72-50.27,78.4-54.27,24.93-4.21,175.28-4.57,199,0Z"/>
        <path class="st3" d="M1406.47,3155.82c10.17,2.76,51.84,49.94,54.27,60.3,1.3,5.56,1.3,30.63,0,36.18-4.72,20.1-46.3,56.05-66.33,60.3-17.03,3.62-213.52,3.72-229.16,0-9.25-2.2-51.95-40.67-54.27-48.24-1.32-4.29-1.32-56.02,0-60.3,2.32-7.57,45.02-46.04,54.27-48.24,13.23-3.15,229.58-3.16,241.22,0Z"/>
        <path class="st3" d="M1406.47,3596.04c14.5,3.63,51.48,44.71,54.27,60.3,1.19,6.63,1.17,23.49,0,30.15-4.33,24.7-41.19,61.02-66.33,66.33-18.71,3.96-204.49,3.97-223.13,0-12.24-2.61-56.96-37.43-60.3-48.24-1.31-4.23-1.31-56.02,0-60.3,2.32-7.57,45.03-46.04,54.27-48.24,13.75-3.27,228.15-3.27,241.22,0Z"/>
      </g>
    </g>
  </g>
  <g id="Layer_2" class="st4">
    <g id="Generative_Object1" data-name="Generative_Object">
      <g>
        <path class="st5" d="M4039.54,4165.35c10.92-3.43,28.98.55,32.37,13.19,1.55,5.79,1.67,114.13,0,119.89-4.3,14.82-32.92,20.66-40.76,2.4-2.99-6.96-4.43-107.25-2.4-117.49.91-4.58,5.88-16.44,10.79-17.98Z"/>
        <g>
          <path class="st5" d="M3579.17,4234.88c5.87-.72,37.21-1.71,39.56,3.6-21.35,135.65,108.45,125.97,87.52-3.6h105.5c-19.94,137.43,107.7,133.3,88.72,0h105.5c-18.51,137.42,106.32,133.57,91.12,0h103.1c5.77,4.09-16.58,125.92,59.94,98.31,44.93-16.21,19.19-92.99,31.17-98.31,49.74-5.65,91,14.74,106.7,63.54v913.55c-9.76,33.43-36.57,60.26-70.73,68.34h-748.11c-37.55-7.87-62.27-33.36-70.73-70.73v-906.36c6.12-35.38,34.45-63.87,70.73-68.34Z"/>
          <g>
            <path class="st0" d="M3931.64,4508.23c354.85-24.64,380.12,498.29,43.16,522.71-350.2,25.38-385.41-498.95-43.16-522.71Z"/>
            <path class="st2" d="M3886.08,4640.11c8.48-.47,22.88,8.2,31.17,11.99,31.59,14.43,143.8,72.65,167.84,91.12,19.13,14.69,20.05,28.72,2.4,45.56l-194.22,107.9c-9.13.99-25.26-6.94-27.57-15.59-2.95-11-3.09-216.83,0-227.79,1.64-5.82,14.5-12.86,20.38-13.19Z"/>
          </g>
        </g>
      </g>
      <polyline class="st6" points="4244.55 4299.62 4244.55 4172.54 3856.11 4170.14 3856.11 4299.62 3661.89 4299.62 3661.89 4172.54"/>
    </g>
  </g>
</svg>